<svg width="160" height="161" viewBox="0 0 160 161" fill="none" xmlns="http://www.w3.org/2000/svg">
<path d="M79.9002 1.00006C98.0856 0.977372 115.736 7.15119 129.942 18.504C144.149 29.8567 154.063 45.7109 158.052 63.4535C162.041 81.1961 159.865 99.7682 151.884 116.109C143.904 132.449 130.594 145.583 114.148 153.346C97.7028 161.108 79.1034 163.036 61.4155 158.811C43.7277 154.587 28.0069 144.462 16.8444 130.106C5.6818 115.749 -0.256395 98.0182 0.00849311 79.8347C0.273381 61.6513 6.72554 44.1007 18.3016 30.0755L41.4385 49.1722C34.2035 57.9379 30.1709 68.907 30.0053 80.2717C29.8398 91.6364 33.5511 102.718 40.5277 111.691C47.5043 120.664 57.3298 126.992 68.3847 129.632C79.4397 132.273 91.0643 131.068 101.343 126.216C111.621 121.365 119.94 113.156 124.928 102.943C129.916 92.7301 131.275 81.1226 128.783 70.0334C126.29 58.9443 120.093 49.0355 111.214 41.94C102.335 34.8445 91.3035 30.9859 79.9376 31L79.9002 1.00006Z" fill="#D2AACC"/>
<path d="M18.1156 29.5157L17.7958 29.9001L18.1802 30.2199L41.2425 49.4066L41.6269 49.7263L41.9467 49.342C46.5951 43.7546 52.417 39.2594 58.9986 36.1758C65.5802 33.0922 72.7602 31.4958 80.0284 31.5L80.5284 31.5003L80.5287 31.0003L80.5462 1.00031L80.5465 0.500305L80.0465 0.500014C68.2265 0.493119 56.55 3.08928 45.8465 8.10405C35.143 13.1188 25.6752 20.4291 18.1156 29.5157Z" fill="#E9B95D" stroke="white"/>
</svg>
