<svg width="161" height="162" viewBox="0 0 161 162" fill="none" xmlns="http://www.w3.org/2000/svg">
<rect x="1" y="2" width="160" height="160" fill="#FBFBFB"/>
<path d="M80.2963 2.00359C93.5582 1.8868 106.641 5.06891 118.368 11.2636C130.095 17.4583 140.097 26.4713 147.476 37.4915C154.855 48.5118 159.378 61.1936 160.639 74.3959C161.899 87.5983 159.858 100.907 154.698 113.124C149.538 125.342 141.422 136.085 131.08 144.387C120.737 152.689 108.493 158.29 95.4487 160.685C82.4044 163.08 68.9693 162.195 56.3521 158.109C43.7349 154.022 32.3315 146.863 23.168 137.276L44.8553 116.548C50.5825 122.54 57.7096 127.014 65.5954 129.568C73.4811 132.122 81.8781 132.675 90.0308 131.178C98.1835 129.681 105.836 126.181 112.3 120.992C118.764 115.803 123.837 109.089 127.062 101.453C130.286 93.817 131.562 85.4991 130.774 77.2476C129.986 68.9962 127.16 61.07 122.548 54.1824C117.936 47.2947 111.684 41.6616 104.355 37.7899C97.026 33.9183 88.8492 31.9294 80.5605 32.0024L80.2963 2.00359Z" fill="#76DB89"/>
<path d="M22.4796 137.277L22.823 137.64L23.1865 137.297L44.9957 116.697L45.3591 116.354L45.0158 115.99C38.3842 108.969 33.9512 100.162 32.2631 90.6525C30.5749 81.1433 31.7054 71.3481 35.5152 62.4735C39.325 53.5989 45.6476 46.0327 53.7042 40.7069C61.7608 35.3811 71.1994 32.5284 80.8571 32.5004L81.3571 32.4989L81.3557 31.9989L81.2685 1.99903L81.267 1.49904L80.767 1.50049C65.061 1.54614 49.7114 6.18531 36.6092 14.8464C23.5071 23.5076 13.2248 35.8123 7.02911 50.2447C0.833412 64.6772 -1.00502 80.6068 1.74031 96.0711C4.48564 111.535 11.6948 125.859 22.4796 137.277Z" fill="#89EEE8" stroke="white"/>
</svg>
