<svg width="262" height="262" viewBox="0 0 262 262" fill="none" xmlns="http://www.w3.org/2000/svg">
<mask id="path-1-outside-1" maskUnits="userSpaceOnUse" x="138" y="122" width="125" height="140" fill="black">
<rect fill="white" x="138" y="122" width="125" height="140"/>
<path d="M260.811 123.988C262.594 157.005 251.729 189.461 230.428 214.75C209.126 240.04 178.988 256.261 146.149 260.114L140.089 208.469C159.793 206.157 177.876 196.424 190.657 181.25C203.438 166.077 209.956 146.603 208.886 126.793L260.811 123.988Z"/>
</mask>
<path d="M260.811 123.988C262.594 157.005 251.729 189.461 230.428 214.75C209.126 240.04 178.988 256.261 146.149 260.114L140.089 208.469C159.793 206.157 177.876 196.424 190.657 181.25C203.438 166.077 209.956 146.603 208.886 126.793L260.811 123.988Z" fill="#82B8F7"/>
<path d="M260.811 123.988C262.594 157.005 251.729 189.461 230.428 214.75C209.126 240.04 178.988 256.261 146.149 260.114L140.089 208.469C159.793 206.157 177.876 196.424 190.657 181.25C203.438 166.077 209.956 146.603 208.886 126.793L260.811 123.988Z" stroke="white" stroke-width="2" mask="url(#path-1-outside-1)"/>
<mask id="path-2-outside-2" maskUnits="userSpaceOnUse" x="130" y="0" width="92" height="76" fill="black">
<rect fill="white" x="130" width="92" height="76"/>
<path d="M131 1C164.065 1 195.888 13.5995 219.991 36.2341L184.395 74.1404C169.933 60.5597 150.839 53 131 53V1Z"/>
</mask>
<path d="M131 1C164.065 1 195.888 13.5995 219.991 36.2341L184.395 74.1404C169.933 60.5597 150.839 53 131 53V1Z" fill="#CC94DF"/>
<path d="M131 1C164.065 1 195.888 13.5995 219.991 36.2341L184.395 74.1404C169.933 60.5597 150.839 53 131 53V1Z" stroke="white" stroke-width="2" mask="url(#path-2-outside-2)"/>
<mask id="path-3-outside-3" maskUnits="userSpaceOnUse" x="183" y="35" width="79" height="93" fill="black">
<rect fill="white" x="183" y="35" width="79" height="93"/>
<path d="M220.496 36.7104C244.478 59.4733 258.885 90.5193 260.785 123.53L208.871 126.518C207.731 106.712 199.087 88.084 184.697 74.4262L220.496 36.7104Z"/>
</mask>
<path d="M220.496 36.7104C244.478 59.4733 258.885 90.5193 260.785 123.53L208.871 126.518C207.731 106.712 199.087 88.084 184.697 74.4262L220.496 36.7104Z" fill="#EDE86A"/>
<path d="M220.496 36.7104C244.478 59.4733 258.885 90.5193 260.785 123.53L208.871 126.518C207.731 106.712 199.087 88.084 184.697 74.4262L220.496 36.7104Z" stroke="white" stroke-width="2" mask="url(#path-3-outside-3)"/>
<mask id="path-4-outside-4" maskUnits="userSpaceOnUse" x="34" y="182" width="114" height="80" fill="black">
<rect fill="white" x="34" y="182" width="114" height="80"/>
<path d="M146.626 260.057C126.259 262.523 105.598 260.134 86.3318 253.085C67.0655 246.036 49.7411 234.527 35.775 219.5L73.865 184.1C82.2447 193.116 92.6393 200.022 104.199 204.251C115.759 208.48 128.155 209.914 140.375 208.434L146.626 260.057Z"/>
</mask>
<path d="M146.626 260.057C126.259 262.523 105.598 260.134 86.3318 253.085C67.0655 246.036 49.7411 234.527 35.775 219.5L73.865 184.1C82.2447 193.116 92.6393 200.022 104.199 204.251C115.759 208.48 128.155 209.914 140.375 208.434L146.626 260.057Z" fill="#FFBE71"/>
<path d="M146.626 260.057C126.259 262.523 105.598 260.134 86.3318 253.085C67.0655 246.036 49.7411 234.527 35.775 219.5L73.865 184.1C82.2447 193.116 92.6393 200.022 104.199 204.251C115.759 208.48 128.155 209.914 140.375 208.434L146.626 260.057Z" stroke="white" stroke-width="2" mask="url(#path-4-outside-4)"/>
<mask id="path-5-outside-5" maskUnits="userSpaceOnUse" x="0" y="0" width="133" height="222" fill="black">
<rect fill="white" width="133" height="222"/>
<path d="M36.1162 219.865C18.778 201.353 7.23394 178.173 2.90627 153.181C-1.42139 128.189 1.6564 102.477 11.7605 79.2126C21.8645 55.9482 38.5534 36.1477 59.7712 22.2505C80.9889 8.35327 105.809 0.966467 131.172 1.00011L131.103 53.0001C115.885 52.9799 100.993 57.412 88.2627 65.7503C75.5321 74.0886 65.5187 85.9689 59.4563 99.9276C53.3938 113.886 51.5472 129.313 54.1438 144.309C56.7404 159.304 63.6668 173.212 74.0697 184.319L36.1162 219.865Z"/>
</mask>
<path d="M36.1162 219.865C18.778 201.353 7.23394 178.173 2.90627 153.181C-1.42139 128.189 1.6564 102.477 11.7605 79.2126C21.8645 55.9482 38.5534 36.1477 59.7712 22.2505C80.9889 8.35327 105.809 0.966467 131.172 1.00011L131.103 53.0001C115.885 52.9799 100.993 57.412 88.2627 65.7503C75.5321 74.0886 65.5187 85.9689 59.4563 99.9276C53.3938 113.886 51.5472 129.313 54.1438 144.309C56.7404 159.304 63.6668 173.212 74.0697 184.319L36.1162 219.865Z" fill="#B6F5F2"/>
<path d="M36.1162 219.865C18.778 201.353 7.23394 178.173 2.90627 153.181C-1.42139 128.189 1.6564 102.477 11.7605 79.2126C21.8645 55.9482 38.5534 36.1477 59.7712 22.2505C80.9889 8.35327 105.809 0.966467 131.172 1.00011L131.103 53.0001C115.885 52.9799 100.993 57.412 88.2627 65.7503C75.5321 74.0886 65.5187 85.9689 59.4563 99.9276C53.3938 113.886 51.5472 129.313 54.1438 144.309C56.7404 159.304 63.6668 173.212 74.0697 184.319L36.1162 219.865Z" stroke="white" stroke-width="2" mask="url(#path-5-outside-5)"/>
</svg>
