<svg width="261" height="261" viewBox="0 0 261 261" fill="none" xmlns="http://www.w3.org/2000/svg">
<path d="M131 1C152.551 1 173.765 6.35795 192.731 16.5918C211.698 26.8256 227.823 41.6142 239.655 59.627C251.487 77.6398 258.656 98.3117 260.515 119.783C262.375 141.254 258.867 162.85 250.308 182.629C241.749 202.408 228.407 219.749 211.482 233.091C194.558 246.434 174.581 255.359 153.351 259.064C132.12 262.77 110.302 261.139 89.858 254.318C69.4144 247.498 50.9871 235.701 36.2341 219.991L74.1405 184.395C82.9922 193.821 94.0486 200.899 106.315 204.991C118.581 209.083 131.672 210.062 144.41 207.839C157.149 205.615 169.135 200.26 179.289 192.255C189.444 184.249 197.449 173.845 202.585 161.978C207.72 150.11 209.825 137.152 208.709 124.27C207.593 111.387 203.292 98.9839 196.193 88.1762C189.094 77.3685 179.419 68.4954 168.039 62.3551C156.659 56.2148 143.931 53 131 53V1Z" fill="#82B8F7"/>
<mask id="path-2-outside-1" maskUnits="userSpaceOnUse" x="0" y="104" width="76" height="117" fill="black">
<rect fill="white" y="104" width="76" height="117"/>
<path d="M35.825 219.553C21.8503 204.534 11.6288 186.42 5.99602 166.693C0.363259 146.966 -0.52075 126.186 3.41626 106.052L54.4498 116.031C52.0876 128.112 52.618 140.58 55.9976 152.416C59.3773 164.252 65.5102 175.12 73.895 184.132L35.825 219.553Z"/>
</mask>
<path d="M35.825 219.553C21.8503 204.534 11.6288 186.42 5.99602 166.693C0.363259 146.966 -0.52075 126.186 3.41626 106.052L54.4498 116.031C52.0876 128.112 52.618 140.58 55.9976 152.416C59.3773 164.252 65.5102 175.12 73.895 184.132L35.825 219.553Z" fill="#CC94DF"/>
<path d="M35.825 219.553C21.8503 204.534 11.6288 186.42 5.99602 166.693C0.363259 146.966 -0.52075 126.186 3.41626 106.052L54.4498 116.031C52.0876 128.112 52.618 140.58 55.9976 152.416C59.3773 164.252 65.5102 175.12 73.895 184.132L35.825 219.553Z" stroke="white" stroke-width="2" mask="url(#path-2-outside-1)"/>
<mask id="path-3-outside-2" maskUnits="userSpaceOnUse" x="2" y="46" width="71" height="72" fill="black">
<rect fill="white" x="2" y="46" width="71" height="72"/>
<path d="M3.41739 106.047C7.62053 84.5566 17.1839 64.4766 31.2199 47.6697L71.132 81.0018C62.7103 91.0859 56.9723 103.134 54.4504 116.028L3.41739 106.047Z"/>
</mask>
<path d="M3.41739 106.047C7.62053 84.5566 17.1839 64.4766 31.2199 47.6697L71.132 81.0018C62.7103 91.0859 56.9723 103.134 54.4504 116.028L3.41739 106.047Z" fill="#FD8FA3"/>
<path d="M3.41739 106.047C7.62053 84.5566 17.1839 64.4766 31.2199 47.6697L71.132 81.0018C62.7103 91.0859 56.9723 103.134 54.4504 116.028L3.41739 106.047Z" stroke="white" stroke-width="2" mask="url(#path-3-outside-2)"/>
<mask id="path-4-outside-3" maskUnits="userSpaceOnUse" x="29" y="-1" width="103" height="84" fill="black">
<rect fill="white" x="29" y="-1" width="103" height="84"/>
<path d="M30.8064 48.1674C42.9995 33.4187 58.2983 21.5438 75.6106 13.3904C92.9229 5.23701 111.822 1.00619 130.958 1.00001L130.975 53C119.493 53.0037 108.154 55.5422 97.7664 60.4342C87.379 65.3263 78.1997 72.4512 70.8838 81.3004L30.8064 48.1674Z"/>
</mask>
<path d="M30.8064 48.1674C42.9995 33.4187 58.2983 21.5438 75.6106 13.3904C92.9229 5.23701 111.822 1.00619 130.958 1.00001L130.975 53C119.493 53.0037 108.154 55.5422 97.7664 60.4342C87.379 65.3263 78.1997 72.4512 70.8838 81.3004L30.8064 48.1674Z" fill="#B6F5F2"/>
<path d="M30.8064 48.1674C42.9995 33.4187 58.2983 21.5438 75.6106 13.3904C92.9229 5.23701 111.822 1.00619 130.958 1.00001L130.975 53C119.493 53.0037 108.154 55.5422 97.7664 60.4342C87.379 65.3263 78.1997 72.4512 70.8838 81.3004L30.8064 48.1674Z" stroke="white" stroke-width="2" mask="url(#path-4-outside-3)"/>
</svg>
