<svg width="262" height="263" viewBox="0 0 262 263" fill="none" xmlns="http://www.w3.org/2000/svg">
<path d="M131 2C155.825 2 180.13 9.10782 201.043 22.4832C221.956 35.8585 238.603 54.9421 249.014 77.4779L201.808 99.2867C195.562 85.7653 185.574 74.3151 173.026 66.2899C160.478 58.2647 145.895 54 131 54V2Z" fill="#D1F782"/>
<mask id="path-2-outside-1" maskUnits="userSpaceOnUse" x="175" y="76" width="87" height="163" fill="black">
<rect fill="white" x="175" y="76" width="87" height="163"/>
<path d="M249.159 77.7924C261.72 105.173 264.383 136.066 256.691 165.192C249 194.318 231.432 219.869 206.99 237.478L176.594 195.287C191.259 184.721 201.8 169.391 206.415 151.915C211.03 134.44 209.432 115.904 201.895 99.4754L249.159 77.7924Z"/>
</mask>
<path d="M249.159 77.7924C261.72 105.173 264.383 136.066 256.691 165.192C249 194.318 231.432 219.869 206.99 237.478L176.594 195.287C191.259 184.721 201.8 169.391 206.415 151.915C211.03 134.44 209.432 115.904 201.895 99.4754L249.159 77.7924Z" fill="#F9CA9E"/>
<path d="M249.159 77.7924C261.72 105.173 264.383 136.066 256.691 165.192C249 194.318 231.432 219.869 206.99 237.478L176.594 195.287C191.259 184.721 201.8 169.391 206.415 151.915C211.03 134.44 209.432 115.904 201.895 99.4754L249.159 77.7924Z" stroke="white" stroke-width="2" mask="url(#path-2-outside-1)"/>
<mask id="path-3-outside-2" maskUnits="userSpaceOnUse" x="127" y="193" width="82" height="70" fill="black">
<rect fill="white" x="127" y="193" width="82" height="70"/>
<path d="M206.959 237.5C184.186 253.896 156.719 262.484 128.662 261.979L129.597 209.987C146.432 210.29 162.912 205.138 176.575 195.3L206.959 237.5Z"/>
</mask>
<path d="M206.959 237.5C184.186 253.896 156.719 262.484 128.662 261.979L129.597 209.987C146.432 210.29 162.912 205.138 176.575 195.3L206.959 237.5Z" fill="#A4C9CB"/>
<path d="M206.959 237.5C184.186 253.896 156.719 262.484 128.662 261.979L129.597 209.987C146.432 210.29 162.912 205.138 176.575 195.3L206.959 237.5Z" stroke="white" stroke-width="2" mask="url(#path-3-outside-2)"/>
<mask id="path-4-outside-3" maskUnits="userSpaceOnUse" x="46" y="190" width="86" height="73" fill="black">
<rect fill="white" x="46" y="190" width="86" height="73"/>
<path d="M131 262C100.748 262 71.4441 251.45 48.1349 232.167L81.2809 192.1C95.2664 203.67 112.849 210 131 210V262Z"/>
</mask>
<path d="M131 262C100.748 262 71.4441 251.45 48.1349 232.167L81.2809 192.1C95.2664 203.67 112.849 210 131 210V262Z" fill="#D0C9FF"/>
<path d="M131 262C100.748 262 71.4441 251.45 48.1349 232.167L81.2809 192.1C95.2664 203.67 112.849 210 131 210V262Z" stroke="white" stroke-width="2" mask="url(#path-4-outside-3)"/>
<mask id="path-5-outside-4" maskUnits="userSpaceOnUse" x="0" y="0" width="132" height="234" fill="black">
<rect fill="white" width="132" height="234"/>
<path d="M47.5026 231.64C27.0832 214.529 12.4139 191.557 5.48014 165.834C-1.45359 140.111 -0.316957 112.879 8.7362 87.8235C17.7893 62.7678 34.3219 41.0985 56.0962 25.7483C77.8705 10.3982 103.835 2.10842 130.476 2.00106L130.686 54.0006C114.701 54.0651 99.1223 59.0389 86.0577 68.249C72.9931 77.4591 63.0736 90.4607 57.6417 105.494C52.2098 120.528 51.5278 136.867 55.6881 152.301C59.8483 167.734 68.6499 181.517 80.9016 191.784L47.5026 231.64Z"/>
</mask>
<path d="M47.5026 231.64C27.0832 214.529 12.4139 191.557 5.48014 165.834C-1.45359 140.111 -0.316957 112.879 8.7362 87.8235C17.7893 62.7678 34.3219 41.0985 56.0962 25.7483C77.8705 10.3982 103.835 2.10842 130.476 2.00106L130.686 54.0006C114.701 54.0651 99.1223 59.0389 86.0577 68.249C72.9931 77.4591 63.0736 90.4607 57.6417 105.494C52.2098 120.528 51.5278 136.867 55.6881 152.301C59.8483 167.734 68.6499 181.517 80.9016 191.784L47.5026 231.64Z" fill="#FFC9C9"/>
<path d="M47.5026 231.64C27.0832 214.529 12.4139 191.557 5.48014 165.834C-1.45359 140.111 -0.316957 112.879 8.7362 87.8235C17.7893 62.7678 34.3219 41.0985 56.0962 25.7483C77.8705 10.3982 103.835 2.10842 130.476 2.00106L130.686 54.0006C114.701 54.0651 99.1223 59.0389 86.0577 68.249C72.9931 77.4591 63.0736 90.4607 57.6417 105.494C52.2098 120.528 51.5278 136.867 55.6881 152.301C59.8483 167.734 68.6499 181.517 80.9016 191.784L47.5026 231.64Z" stroke="white" stroke-width="2" mask="url(#path-5-outside-4)"/>
</svg>
