<svg width="262" height="263" viewBox="0 0 262 263" fill="none" xmlns="http://www.w3.org/2000/svg">
<mask id="path-1-outside-1" maskUnits="userSpaceOnUse" x="157" y="160" width="96" height="95" fill="black">
<rect fill="white" x="157" y="160" width="96" height="95"/>
<path d="M251.044 181.893C244.229 198.292 234.125 213.121 221.356 225.465C208.588 237.809 193.426 247.405 176.806 253.663L158.483 204.998C168.456 201.243 177.553 195.485 185.214 188.079C192.875 180.673 198.937 171.775 203.027 161.936L251.044 181.893Z"/>
</mask>
<path d="M251.044 181.893C244.229 198.292 234.125 213.121 221.356 225.465C208.588 237.809 193.426 247.405 176.806 253.663L158.483 204.998C168.456 201.243 177.553 195.485 185.214 188.079C192.875 180.673 198.937 171.775 203.027 161.936L251.044 181.893Z" fill="#CAF782"/>
<path d="M251.044 181.893C244.229 198.292 234.125 213.121 221.356 225.465C208.588 237.809 193.426 247.405 176.806 253.663L158.483 204.998C168.456 201.243 177.553 195.485 185.214 188.079C192.875 180.673 198.937 171.775 203.027 161.936L251.044 181.893Z" stroke="white" stroke-width="2" mask="url(#path-1-outside-1)"/>
<mask id="path-2-outside-2" maskUnits="userSpaceOnUse" x="130" y="1" width="117" height="95" fill="black">
<rect fill="white" x="130" y="1" width="117" height="95"/>
<path d="M131 2C154.282 2 177.136 8.25225 197.175 20.1035C217.215 31.9548 233.704 48.9702 244.92 69.372L199.352 94.4232C192.622 82.1821 182.729 71.9729 170.705 64.8621C158.682 57.7514 144.969 54 131 54V2Z"/>
</mask>
<path d="M131 2C154.282 2 177.136 8.25225 197.175 20.1035C217.215 31.9548 233.704 48.9702 244.92 69.372L199.352 94.4232C192.622 82.1821 182.729 71.9729 170.705 64.8621C158.682 57.7514 144.969 54 131 54V2Z" fill="#EC8CAE"/>
<path d="M131 2C154.282 2 177.136 8.25225 197.175 20.1035C217.215 31.9548 233.704 48.9702 244.92 69.372L199.352 94.4232C192.622 82.1821 182.729 71.9729 170.705 64.8621C158.682 57.7514 144.969 54 131 54V2Z" stroke="white" stroke-width="2" mask="url(#path-2-outside-2)"/>
<mask id="path-3-outside-3" maskUnits="userSpaceOnUse" x="198" y="68" width="64" height="115" fill="black">
<rect fill="white" x="198" y="68" width="64" height="115"/>
<path d="M245.423 70.2967C254.506 87.14 259.758 105.781 260.805 124.888C261.852 143.996 258.668 163.099 251.479 180.834L203.288 161.3C207.601 150.659 209.511 139.197 208.883 127.733C208.255 116.268 205.104 105.084 199.654 94.978L245.423 70.2967Z"/>
</mask>
<path d="M245.423 70.2967C254.506 87.14 259.758 105.781 260.805 124.888C261.852 143.996 258.668 163.099 251.479 180.834L203.288 161.3C207.601 150.659 209.511 139.197 208.883 127.733C208.255 116.268 205.104 105.084 199.654 94.978L245.423 70.2967Z" fill="#FAC560"/>
<path d="M245.423 70.2967C254.506 87.14 259.758 105.781 260.805 124.888C261.852 143.996 258.668 163.099 251.479 180.834L203.288 161.3C207.601 150.659 209.511 139.197 208.883 127.733C208.255 116.268 205.104 105.084 199.654 94.978L245.423 70.2967Z" stroke="white" stroke-width="2" mask="url(#path-3-outside-3)"/>
<mask id="path-4-outside-4" maskUnits="userSpaceOnUse" x="118" y="203" width="59" height="60" fill="black">
<rect fill="white" x="118" y="203" width="59" height="60"/>
<path d="M175.715 254.068C157.746 260.65 138.546 263.184 119.485 261.489L124.091 209.693C135.528 210.71 147.048 209.19 157.829 205.241L175.715 254.068Z"/>
</mask>
<path d="M175.715 254.068C157.746 260.65 138.546 263.184 119.485 261.489L124.091 209.693C135.528 210.71 147.048 209.19 157.829 205.241L175.715 254.068Z" fill="#71FFD4"/>
<path d="M175.715 254.068C157.746 260.65 138.546 263.184 119.485 261.489L124.091 209.693C135.528 210.71 147.048 209.19 157.829 205.241L175.715 254.068Z" stroke="white" stroke-width="2" mask="url(#path-4-outside-4)"/>
<mask id="path-5-outside-5" maskUnits="userSpaceOnUse" x="70" y="200" width="55" height="63" fill="black">
<rect fill="white" x="70" y="200" width="55" height="63"/>
<path d="M118.757 261.422C102.445 259.879 86.5719 255.266 71.9735 247.827L95.5841 201.496C104.343 205.96 113.867 208.728 123.654 209.653L118.757 261.422Z"/>
</mask>
<path d="M118.757 261.422C102.445 259.879 86.5719 255.266 71.9735 247.827L95.5841 201.496C104.343 205.96 113.867 208.728 123.654 209.653L118.757 261.422Z" fill="#71BBFF"/>
<path d="M118.757 261.422C102.445 259.879 86.5719 255.266 71.9735 247.827L95.5841 201.496C104.343 205.96 113.867 208.728 123.654 209.653L118.757 261.422Z" stroke="white" stroke-width="2" mask="url(#path-5-outside-5)"/>
<mask id="path-6-outside-6" maskUnits="userSpaceOnUse" x="36" y="185" width="61" height="64" fill="black">
<rect fill="white" x="36" y="185" width="61" height="64"/>
<path d="M70.4639 247.045C58.3915 240.693 47.3943 232.48 37.8758 222.708L75.1255 186.425C80.8366 192.288 87.4349 197.216 94.6783 201.027L70.4639 247.045Z"/>
</mask>
<path d="M70.4639 247.045C58.3915 240.693 47.3943 232.48 37.8758 222.708L75.1255 186.425C80.8366 192.288 87.4349 197.216 94.6783 201.027L70.4639 247.045Z" fill="#A987F1"/>
<path d="M70.4639 247.045C58.3915 240.693 47.3943 232.48 37.8758 222.708L75.1255 186.425C80.8366 192.288 87.4349 197.216 94.6783 201.027L70.4639 247.045Z" stroke="white" stroke-width="2" mask="url(#path-6-outside-6)"/>
<mask id="path-7-outside-7" maskUnits="userSpaceOnUse" x="0" y="121" width="76" height="103" fill="black">
<rect fill="white" y="121" width="76" height="103"/>
<path d="M36.9023 221.697C24.3648 208.545 14.7238 192.91 8.60139 175.802C2.47899 158.693 0.0111592 140.491 1.35714 122.37L53.2143 126.222C52.4067 137.095 53.8874 148.016 57.5608 158.281C61.2343 168.546 67.0189 177.927 74.5414 185.818L36.9023 221.697Z"/>
</mask>
<path d="M36.9023 221.697C24.3648 208.545 14.7238 192.91 8.60139 175.802C2.47899 158.693 0.0111592 140.491 1.35714 122.37L53.2143 126.222C52.4067 137.095 53.8874 148.016 57.5608 158.281C61.2343 168.546 67.0189 177.927 74.5414 185.818L36.9023 221.697Z" fill="#9C747E"/>
<path d="M36.9023 221.697C24.3648 208.545 14.7238 192.91 8.60139 175.802C2.47899 158.693 0.0111592 140.491 1.35714 122.37L53.2143 126.222C52.4067 137.095 53.8874 148.016 57.5608 158.281C61.2343 168.546 67.0189 177.927 74.5414 185.818L36.9023 221.697Z" stroke="white" stroke-width="2" mask="url(#path-7-outside-7)"/>
<mask id="path-8-outside-8" maskUnits="userSpaceOnUse" x="0" y="0" width="132" height="128" fill="black">
<rect fill="white" width="132" height="128"/>
<path d="M1.35373 122.416C3.7606 89.8565 18.3308 59.3942 42.1683 37.0846C66.0058 14.775 97.3651 2.25165 130.013 2.00375L130.408 54.0022C110.819 54.151 92.0035 61.665 77.701 75.0508C63.3985 88.4365 54.6564 106.714 53.2122 126.25L1.35373 122.416Z"/>
</mask>
<path d="M1.35373 122.416C3.7606 89.8565 18.3308 59.3942 42.1683 37.0846C66.0058 14.775 97.3651 2.25165 130.013 2.00375L130.408 54.0022C110.819 54.151 92.0035 61.665 77.701 75.0508C63.3985 88.4365 54.6564 106.714 53.2122 126.25L1.35373 122.416Z" fill="#EBEBEB"/>
<path d="M1.35373 122.416C3.7606 89.8565 18.3308 59.3942 42.1683 37.0846C66.0058 14.775 97.3651 2.25165 130.013 2.00375L130.408 54.0022C110.819 54.151 92.0035 61.665 77.701 75.0508C63.3985 88.4365 54.6564 106.714 53.2122 126.25L1.35373 122.416Z" stroke="white" stroke-width="2" mask="url(#path-8-outside-8)"/>
</svg>
